<?xml version="1.0" standalone="no"?>
<!DOCTYPE svg PUBLIC "-//W3C//DTD SVG 20010904//EN"
 "http://www.w3.org/TR/2001/REC-SVG-20010904/DTD/svg10.dtd">
<svg version="1.0" xmlns="http://www.w3.org/2000/svg"
 width="250.000000pt" height="250.000000pt" viewBox="0 0 250.000000 250.000000"
 preserveAspectRatio="xMidYMid meet">
<metadata>
Created by potrace 1.15, written by Peter Selinger 2001-2017
</metadata>
<g transform="translate(0.000000,250.000000) scale(0.100000,-0.100000)"
fill="#000000" stroke="none">
<path d="M1980 2135 c-58 -14 -150 -34 -205 -45 -55 -12 -103 -25 -108 -29 -4
-4 107 -38 245 -76 139 -38 259 -70 265 -73 8 -2 -5 46 -30 119 -24 68 -48
124 -53 125 -5 1 -56 -8 -114 -21z"/>
<path d="M1195 2024 c-212 -118 -239 -138 -417 -301 -160 -148 -187 -178 -264
-291 l-85 -126 45 -45 45 -45 188 94 188 94 145 136 c80 74 175 162 212 196
54 51 76 81 126 177 l60 116 -67 26 c-36 14 -69 25 -71 25 -3 0 -50 -25 -105
-56z"/>
<path d="M1504 2008 c-4 -6 -29 -56 -56 -110 l-48 -100 37 6 c260 37 567 87
572 91 2 3 1 5 -4 5 -7 0 -213 53 -392 101 -84 22 -99 23 -109 7z"/>
<path d="M1739 1792 l-325 -56 52 -125 c28 -69 80 -193 114 -276 34 -82 65
-154 69 -158 4 -4 70 86 146 200 330 495 317 473 292 472 -12 -1 -169 -27
-348 -57z"/>
<path d="M1943 1478 c-137 -205 -249 -376 -251 -380 -2 -4 38 -76 88 -160 51
-84 142 -236 202 -338 61 -102 116 -191 123 -199 14 -15 20 33 30 239 4 107
19 395 48 973 7 130 11 237 10 237 -2 0 -114 -168 -250 -372z"/>
<path d="M1185 1583 c-94 -85 -183 -167 -198 -182 l-29 -28 84 -27 c272 -88
525 -170 537 -174 10 -4 12 -1 6 7 -4 8 -58 136 -119 286 l-112 272 -169 -154z"/>
<path d="M709 1233 l-166 -86 27 -66 c15 -36 55 -141 90 -234 l64 -167 17 72
c64 260 137 563 135 565 -1 1 -76 -37 -167 -84z"/>
<path d="M936 1293 c-3 -10 -23 -97 -46 -193 -23 -96 -59 -249 -81 -339 -21
-90 -39 -167 -39 -172 0 -5 26 7 58 27 106 68 176 113 362 233 102 66 233 150
292 188 l108 68 -98 32 c-313 102 -536 173 -543 173 -4 0 -10 -8 -13 -17z"/>
<path d="M396 1219 c-6 -17 -104 -503 -102 -506 1 -1 145 328 175 404 14 34
14 35 -27 76 -30 30 -43 37 -46 26z"/>
<path d="M507 1053 c-3 -4 -36 -84 -75 -178 -39 -93 -86 -207 -105 -251 l-35
-82 206 5 c114 3 208 7 210 8 2 2 -22 66 -52 142 -30 77 -74 189 -96 249 -45
118 -46 119 -53 107z"/>
<path d="M1500 970 c-219 -144 -575 -373 -633 -409 -21 -13 -35 -26 -32 -29 3
-3 31 -9 63 -13 31 -4 109 -14 172 -23 63 -9 311 -42 550 -75 239 -33 436 -58
438 -56 5 4 -411 695 -418 694 -3 0 -66 -40 -140 -89z"/>
<path d="M465 469 c44 -5 157 -16 250 -24 94 -9 238 -22 320 -30 83 -8 227
-22 321 -31 95 -9 180 -14 190 -12 10 2 -94 18 -231 37 -138 19 -293 40 -345
48 -57 9 -192 16 -340 18 -183 3 -225 1 -165 -6z"/>
</g>
</svg>
